<?xml version="1.0" encoding="UTF-8" standalone="no"?>
<!-- Created with Inkscape (http://www.inkscape.org/) -->

<svg
   width="210mm"
   height="114mm"
   viewBox="0 0 210 114"
   version="1.1"
   id="svg1"
   inkscape:version="1.4.2 (ebf0e940, 2025-05-08)"
   sodipodi:docname="logo-text.svg"
   xmlns:inkscape="http://www.inkscape.org/namespaces/inkscape"
   xmlns:sodipodi="http://sodipodi.sourceforge.net/DTD/sodipodi-0.dtd"
   xmlns="http://www.w3.org/2000/svg"
   xmlns:svg="http://www.w3.org/2000/svg">
  <sodipodi:namedview
     id="namedview1"
     pagecolor="#ffffff"
     bordercolor="#000000"
     borderopacity="0.25"
     inkscape:showpageshadow="2"
     inkscape:pageopacity="0.0"
     inkscape:pagecheckerboard="0"
     inkscape:deskcolor="#d1d1d1"
     inkscape:document-units="mm"
     inkscape:zoom="0.89887065"
     inkscape:cx="396.60879"
     inkscape:cy="561.25984"
     inkscape:window-width="1648"
     inkscape:window-height="1294"
     inkscape:window-x="1842"
     inkscape:window-y="46"
     inkscape:window-maximized="0"
     inkscape:current-layer="layer1" />
  <defs
     id="defs1" />
  <g
     inkscape:label="Layer 1"
     inkscape:groupmode="layer"
     id="layer1">
    <path
       style="fill:#39271b;stroke-width:0.220842"
       d="m 93.074367,108.63613 c -0.603467,-0.22619 -0.771397,-0.8097 -0.467174,-1.62331 0.197701,-0.52874 0.471918,-0.43041 0.840682,0.30142 0.381659,0.75743 1.087473,1.06733 1.544444,0.67813 0.583453,-0.49694 0.327129,-1.01927 -0.936957,-1.90928 -1.307733,-0.92076 -1.565194,-1.47329 -1.262756,-2.70993 0.186442,-0.76237 1.340795,-1.22283 2.615863,-1.04347 0.809538,0.1138 1.021477,0.23961 1.126293,0.66817 0.07101,0.29038 0.06659,0.69516 -0.0099,0.89956 -0.12,0.32093 -0.22404,0.28793 -0.762979,-0.24197 -0.751087,-0.73849 -1.616028,-0.7243 -1.720345,0.0282 -0.05455,0.39345 0.146783,0.60427 1.001563,1.04879 1.580135,0.82176 2.191394,2.0843 1.578294,3.25999 -0.412657,0.79129 -2.259237,1.12641 -3.547086,0.64368 z m 6.226542,0.0345 c -0.610427,-0.25239 -0.937269,-1.44224 -0.938851,-3.41786 -9.07e-4,-0.95058 -0.119915,-1.70393 -0.318776,-2.01539 -0.296485,-0.46437 -0.260903,-0.56034 0.536251,-1.44633 1.006779,-1.11896 1.572147,-1.24653 1.479057,-0.33372 -0.0558,0.54655 0.0164,0.62307 0.64574,0.68536 0.95492,0.0944 0.99399,0.82213 0.0545,1.01494 l -0.654,0.13424 v 2.24843 2.24842 l 0.654,0.13424 c 0.75416,0.15479 0.8344,0.41094 0.23233,0.7416 -0.49972,0.27447 -1.036383,0.27638 -1.690251,0.007 z m 3.323271,-0.2717 c -0.42266,-0.6193 -0.42236,-0.72798 0.003,-1.16473 0.44873,-0.46051 0.65775,-0.44358 1.18342,0.0959 0.52567,0.53949 0.54216,0.75396 0.0934,1.2145 -0.47364,0.48608 -0.8805,0.43977 -1.28006,-0.14567 z m 14.13979,0.28048 c -0.66945,-0.27793 -1.56864,-1.46938 -1.82561,-2.41894 -0.58709,-2.16941 -0.0596,-4.54699 1.26215,-5.68832 1.40821,-1.216051 3.02892,-0.936038 4.08793,0.70625 0.46957,0.72822 0.61396,1.26078 0.69555,2.56551 0.0892,1.42647 0.0284,1.81351 -0.45447,2.89606 -0.81231,1.82091 -2.25779,2.56539 -3.76555,1.93944 z m 1.80497,-1.04997 c 0.57775,-0.90492 0.66459,-4.61179 0.13279,-5.66872 -0.9512,-1.8905 -2.02898,-0.51759 -2.02898,2.58454 0,2.10371 0.57443,3.65937 1.35747,3.6763 0.0872,0.003 0.32958,-0.26457 0.53872,-0.59212 z m -33.070037,0.73481 c 0,-0.16951 0.14715,-0.43352 0.326998,-0.58671 0.506687,-0.43158 0.474003,-6.17421 -0.03845,-6.75532 -0.632163,-0.71688 -0.102239,-0.86977 2.781339,-0.80254 l 2.707082,0.0631 0.06703,0.95083 c 0.07578,1.07488 -0.175193,1.21504 -0.700985,0.39151 -0.299989,-0.46986 -0.52688,-0.55931 -1.418742,-0.55931 -1.187764,0 -1.326292,0.16382 -1.326292,1.56839 0,1.35661 0.967543,1.92972 1.842092,1.09115 0.400693,-0.38419 0.555897,-0.18978 0.555897,0.69632 0,0.84939 -0.251298,1.15886 -0.544998,0.67118 -0.0741,-0.12304 -0.47229,-0.22374 -0.884862,-0.22374 h -0.75013 v 1.45421 1.45421 h 1.08497 c 0.916742,0 1.140337,-0.0867 1.442065,-0.55931 0.523358,-0.81973 0.742949,-0.68748 0.742949,0.44745 v 1.00676 h -2.942989 c -2.354393,0 -2.942985,-0.0617 -2.942985,-0.30818 z m 22.453897,-0.12069 c 0,-0.24351 0.51502,-1.06102 1.14449,-1.81674 2.2515,-2.70301 2.60705,-3.50176 2.13089,-4.78706 -0.31372,-0.8468 -1.3583,-0.79604 -2.00186,0.0973 -0.55995,0.77725 -1.05553,0.87539 -1.05553,0.20902 0,-2.019371 3.25305,-2.752017 4.77505,-1.07545 0.58464,0.64404 0.60501,2.06866 0.0431,3.01435 -0.22671,0.38156 -1.01114,1.17666 -1.74317,1.76688 -0.73204,0.59022 -1.33098,1.20929 -1.33098,1.37571 0,0.41901 1.67371,0.39578 2.47741,-0.0343 0.929,-0.49724 1.04207,-0.42525 0.96861,0.61662 l -0.0671,0.95082 -2.67049,0.0628 c -2.53627,0.0597 -2.67049,0.0406 -2.67049,-0.3799 z m 14.10381,0.28652 c -0.33726,-0.34613 -0.0893,-0.80904 1.25281,-2.33826 1.5155,-1.72686 2.08328,-2.72553 2.08328,-3.66432 0,-1.5548 -0.96158,-1.89393 -2.11553,-0.74613 -0.5393,0.53645 -0.7816,0.65154 -0.96833,0.45989 -0.40404,-0.41463 0.18097,-1.53828 1.01143,-1.9427 1.57812,-0.768528 3.50151,-0.14893 3.96919,1.27861 0.48427,1.47822 -0.16335,2.65472 -2.38725,4.33675 -0.56951,0.43073 -1.0355,0.9256 -1.0355,1.09971 0,0.4272 1.87864,0.41353 2.61599,-0.019 0.81946,-0.48077 0.90294,-0.41888 0.83003,0.61523 l -0.0671,0.95083 -2.51861,0.0627 c -1.38523,0.0345 -2.58695,-0.008 -2.67047,-0.0931 z m 9.00407,0.0649 c 0,-0.0427 0.15621,-0.39887 0.34712,-0.79161 0.54842,-1.12818 0.31547,-1.36816 -1.32811,-1.36816 -1.72551,0 -1.94589,-0.29769 -1.12209,-1.51569 2.02351,-2.99177 3.23512,-4.64308 3.5317,-4.81341 0.79247,-0.455129 0.95259,-0.0501 1.01665,2.57185 0.0593,2.4279 0.0808,2.52957 0.55222,2.59827 0.77437,0.1129 0.56462,1.02984 -0.2725,1.1913 -0.59516,0.11485 -0.66177,0.90848 -0.11856,1.41298 0.24507,0.22761 0.44559,0.49891 0.44559,0.6029 0,0.10392 -0.6867,0.18904 -1.526,0.18904 -0.83929,0 -1.52599,-0.0349 -1.52599,-0.0775 z m 0.436,-4.52208 c 0,-1.4046 -0.21168,-1.42694 -0.87511,-0.0923 -0.57784,1.1624 -0.5491,1.33608 0.22112,1.33608 0.64823,0 0.65399,-0.0104 0.65399,-1.24368 z M 65.007002,97.150642 c 0,-0.229015 0.224991,-0.336265 0.708496,-0.337735 0.389673,-8.46e-4 2.327139,-0.100019 4.30548,-0.21956 14.021982,-0.847439 36.280842,-1.433815 48.286772,-1.272042 14.31157,0.192844 31.22582,0.880227 35.85347,1.457083 1.22627,0.15285 1.52066,0.635202 0.33436,0.547813 -0.3597,-0.02653 -5.26468,-0.278192 -10.89996,-0.55931 -9.09351,-0.453647 -12.51404,-0.510771 -30.41085,-0.507936 -19.741917,0.0039 -26.978232,0.161604 -41.201801,0.902352 -7.557898,0.393597 -6.975967,0.394481 -6.975967,-0.0104 z m 0.520203,-4.460097 c -0.09206,-0.246196 0.07662,-0.609684 0.486974,-1.049349 l 0.627815,-0.672673 V 85.819261 80.670013 L 65.933496,80.020452 C 65.543824,79.663208 65.225,79.279118 65.225,79.166939 c 0,-0.286399 5.591998,-0.561937 7.937253,-0.391087 3.065394,0.223293 4.307023,1.117866 4.307023,3.103097 0,1.256071 -0.484065,2.257231 -1.343211,2.778069 -0.360313,0.218441 -0.655114,0.468578 -0.655114,0.555876 0,0.08727 0.413125,0.392791 0.91806,0.678865 1.303373,0.738446 1.915926,1.763082 1.915926,3.204832 0,1.650357 -0.626982,2.530936 -2.296737,3.225707 -1.193098,0.496424 -1.672707,0.549412 -5.820198,0.642953 -4.09138,0.09222 -4.53331,0.0662 -4.660797,-0.274706 z m 7.171262,-1.549558 c 1.144195,-0.49701 1.573491,-1.157757 1.573491,-2.421826 0,-0.978894 -0.08759,-1.193784 -0.72457,-1.777885 -0.620023,-0.568531 -0.871661,-0.654672 -1.743993,-0.596885 l -1.019422,0.0675 0.0045,2.125373 c 0.0025,1.168955 0.07294,2.30157 0.156656,2.516903 0.182633,0.469722 0.80132,0.500352 1.7534,0.08675 z M 73.089724,84.1126 c 0.980532,-0.899113 0.990096,-2.100128 0.02378,-2.986209 -0.799767,-0.73336 -2.080106,-0.893962 -2.306204,-0.289286 -0.179386,0.479737 -0.168687,3.561257 0.01301,3.747715 0.371963,0.381735 1.621734,0.121609 2.269416,-0.47222 z m 6.892376,8.532267 c -0.07673,-0.07869 0.139119,-0.506609 0.479653,-0.950826 0.862391,-1.124968 1.481334,-2.440607 2.432334,-5.17028 0.450132,-1.292007 1.128825,-3.148931 1.508214,-4.126485 0.474931,-1.223763 0.668274,-2.060016 0.620699,-2.684696 l -0.06909,-0.907294 1.906003,-0.06464 c 1.048303,-0.03551 2.095148,0.03928 2.326322,0.166234 0.412783,0.226726 0.945917,1.522934 3.517156,8.55136 0.745346,2.037373 1.367701,3.357565 1.862439,3.950731 0.408668,0.489973 0.74303,1.000705 0.74303,1.134956 0,0.164777 -0.999951,0.244089 -3.077411,0.244089 h -3.077414 l 0.168838,-0.503383 c 0.28916,-0.86211 0.192367,-2.032456 -0.245168,-2.964345 l -0.420165,-0.894899 -2.087845,-0.0636 -2.087847,-0.0636 -0.351786,0.84662 c -0.66767,1.606825 -0.683336,2.223311 -0.07039,2.770239 0.303804,0.271104 0.500879,0.578404 0.437942,0.682909 -0.131884,0.219 -4.305571,0.262298 -4.515508,0.04682 z m 8.035064,-5.916101 c 0.163558,-0.271584 -1.178355,-4.008309 -1.439443,-4.008309 -0.09173,0 -0.379952,0.629219 -0.640479,1.398269 -0.737442,2.176865 -0.843821,2.585498 -0.70908,2.723781 0.226714,0.232669 2.639648,0.134264 2.789002,-0.113676 z m 8.817685,5.847076 c 0,-0.116666 0.232507,-0.46967 0.516681,-0.784358 0.693102,-0.767502 0.786104,-1.528696 0.788912,-6.456981 0.0025,-4.457651 -0.06645,-4.826562 -1.061077,-5.673545 -0.964824,-0.821622 -0.437591,-0.987634 2.915896,-0.918168 1.989929,0.04123 3.044519,0.148103 3.098209,0.313986 0.0447,0.138322 -0.19245,0.585166 -0.52713,0.993005 -0.56238,0.685289 -0.60852,0.886744 -0.60852,2.656915 0,1.601948 0.0567,1.915413 0.34676,1.915413 0.19071,0 1.10625,-0.893962 2.03453,-1.98657 1.33211,-1.567949 1.658,-2.08655 1.54648,-2.460975 -0.0777,-0.260907 -0.19342,-0.642928 -0.25714,-0.848935 -0.0923,-0.298521 0.0765,-0.403547 0.83175,-0.517326 1.4197,-0.213889 4.16821,-0.04799 4.26658,0.25746 0.0461,0.143264 -0.37883,0.587183 -0.94435,0.986489 -1.26835,0.895576 -4.00963,3.769072 -4.00963,4.20304 0,0.518705 4.17285,6.736486 4.97815,7.417718 0.40722,0.344472 0.67418,0.736287 0.59325,0.870668 -0.18382,0.305232 -3.58488,0.327902 -4.35093,0.029 -0.6028,-0.235206 -1.10973,-0.911053 -3.04539,-4.060257 l -1.27992,-2.082361 -0.43634,0.550231 c -0.38429,0.484589 -0.42061,0.761793 -0.30442,2.323655 0.11211,1.506976 0.21796,1.865586 0.70458,2.386852 0.31496,0.337384 0.50711,0.72228 0.42699,0.855321 -0.18494,0.307118 -6.223921,0.33594 -6.223921,0.02965 z m 17.368201,-0.05697 c -0.16419,-0.104181 -0.0285,-0.391789 0.40254,-0.853409 l 0.65017,-0.696228 V 85.85089 80.732531 l -0.733,-0.776541 c -0.40315,-0.427101 -0.66714,-0.885912 -0.58664,-1.019604 0.22378,-0.37159 10.3817,-0.332779 10.88055,0.04162 0.41111,0.308497 0.7473,2.514237 0.48865,3.205977 -0.12542,0.33542 -0.25647,0.277945 -0.95548,-0.418998 -1.03609,-1.033026 -1.70531,-1.281811 -3.44792,-1.281811 h -1.41044 l 0.0622,2.293155 0.0622,2.293168 0.85996,-0.05424 c 0.62305,-0.03928 1.0533,-0.246587 1.56167,-0.752259 0.38593,-0.383881 0.80826,-0.630364 0.93853,-0.547748 0.14017,0.08896 0.23683,0.920899 0.23683,2.038674 0,1.681195 -0.0439,1.888437 -0.39917,1.888437 -0.21953,0 -0.53041,-0.251685 -0.69083,-0.55931 -0.25512,-0.489206 -0.43731,-0.55931 -1.45384,-0.55931 h -1.16215 v 2.112172 c 0,1.214503 0.0959,2.173003 0.22564,2.255294 0.12411,0.07869 0.82286,0.140195 1.55279,0.136618 1.45605,-0.0065 2.67333,-0.62481 3.36432,-1.707117 0.35024,-0.548567 0.8336,-0.728912 1.03909,-0.387679 0.11929,0.198099 -0.37007,3.334544 -0.54892,3.518089 -0.17933,0.184039 -10.65125,0.248993 -10.9366,0.06776 z m 14.20596,0.02341 c -0.11556,-0.07362 0.0413,-0.440224 0.3489,-0.815326 l 0.55877,-0.681518 v -5.072134 c 0,-5.189594 -0.0508,-5.553159 -0.91182,-6.525108 l -0.42136,-0.475627 4.01247,-0.162527 c 6.70353,-0.271533 8.43867,0.5141 8.43867,3.820811 0,1.28804 -0.56091,2.279745 -1.74378,3.083105 -0.47971,0.325795 -0.87221,0.646778 -0.87221,0.713318 0,0.06659 0.37859,0.694329 0.84131,1.395096 0.46272,0.700779 1.04108,1.677397 1.28524,2.170258 0.24415,0.492874 0.89701,1.230071 1.45079,1.638196 0.55377,0.408138 0.95062,0.83546 0.88189,0.949604 -0.0687,0.114195 -0.92207,0.207528 -1.89628,0.207528 -2.11405,0 -3.33766,-0.49939 -3.96263,-1.617243 -1.23786,-2.214154 -2.36878,-3.752137 -2.75905,-3.752137 -0.37622,0 -0.41925,0.171384 -0.41925,1.670153 0,1.552458 0.0481,1.726392 0.68301,2.468467 0.37566,0.439079 0.64543,0.836838 0.5995,0.883882 -0.14358,0.147062 -5.89297,0.24223 -6.11417,0.101189 z m 7.50214,-8.021821 c 1.46057,-1.67745 0.0747,-4.532217 -2.05028,-4.22346 -0.4874,0.07075 -0.51418,0.168054 -0.57531,2.087785 -0.0353,1.107435 -0.006,2.252614 0.0656,2.54484 0.11748,0.481455 0.21554,0.519498 1.0451,0.405329 0.65249,-0.08974 1.08776,-0.323805 1.51502,-0.814494 z m 10.19146,8.02013 c 0,-0.136046 0.25627,-0.559895 0.56947,-0.941903 0.53822,-0.656429 0.56409,-0.799433 0.47121,-2.605124 -0.0858,-1.668137 -0.21286,-2.155015 -1.0014,-3.836978 -1.02057,-2.176891 -2.14506,-3.964309 -3.22755,-5.130337 -0.40464,-0.435855 -0.73571,-0.914057 -0.73571,-1.062681 0,-0.345551 6.66061,-0.389174 6.86789,-0.045 0.0746,0.12382 -0.0667,0.516961 -0.31414,0.873503 -0.59697,0.860393 -0.57056,1.211147 0.22052,2.928279 0.66058,1.43388 1.20619,2.237241 1.51942,2.237241 0.0881,0 0.57985,-1.008756 1.09284,-2.241689 l 0.9327,-2.241676 -0.62024,-0.664401 c -0.34113,-0.365412 -0.54588,-0.740943 -0.45499,-0.834511 0.25394,-0.26144 4.55566,-0.326419 4.92513,-0.0744 0.2711,0.184937 0.1725,0.384532 -0.58386,1.182 -0.50052,0.527731 -1.62826,2.2683 -2.50609,3.86792 l -1.59606,2.908418 -8e-5,2.166083 c -8e-5,2.058079 0.0298,2.198118 0.59942,2.80879 0.32971,0.353485 0.59949,0.712706 0.59949,0.798262 0,0.08558 -1.52053,0.155542 -3.37898,0.155542 -2.32256,0 -3.37899,-0.07739 -3.37899,-0.247354 z M 59.579435,87.55494 c -0.669805,-0.731709 -0.557405,-1.835086 0.249652,-2.450739 0.73013,-0.556969 1.524523,-0.3516 2.190358,0.566281 0.385518,0.531451 0.403555,0.681297 0.155869,1.29496 -0.493128,1.2218 -1.754795,1.508303 -2.595879,0.589498 z m 99.920205,-0.01431 c -0.2943,-0.302019 -0.53509,-0.809981 -0.53509,-1.128791 0,-0.745912 0.90816,-1.677918 1.63499,-1.677918 0.72683,0 1.63501,0.932006 1.63501,1.677918 0,0.31881 -0.2408,0.826772 -0.5351,1.128804 -0.68196,0.699869 -1.51785,0.699869 -2.19981,0 z M 54.979049,87.470139 C 51.412405,87.250697 42.074765,86.495667 41.354115,86.36844 l -0.871997,-0.153956 1.179746,-0.160927 c 0.648859,-0.08844 4.29885,-0.336876 8.11109,-0.551923 7.554356,-0.426125 7.604084,-0.42091 7.604084,0.79838 0,0.982236 -0.610431,1.280106 -2.397989,1.170125 z M 164.49915,87.16877 c -0.46324,-0.610139 -0.49425,-1.076324 -0.10447,-1.570343 l 0.39432,-0.499741 7.06122,0.398851 c 3.88368,0.219365 7.45364,0.472754 7.93324,0.563122 l 0.87199,0.164282 -1.199,0.154216 c -1.57733,0.202872 -8.54857,0.752727 -11.99365,0.945988 -2.19776,0.123299 -2.77441,0.09286 -2.96365,-0.156375 z M 79.942816,72.433952 c -0.07251,-0.120439 0.09337,-0.531685 0.368631,-0.913928 0.485129,-0.6737 0.500479,-0.841234 0.500479,-5.462726 0,-4.313412 -0.03817,-4.810981 -0.400607,-5.221811 -0.220333,-0.249773 -0.366307,-0.63779 -0.324389,-0.862292 0.06762,-0.362096 0.35729,-0.415344 2.567267,-0.471817 1.370078,-0.03499 2.617052,-0.01405 2.771052,0.04656 0.211076,0.08311 0.1478,0.401712 -0.25704,1.29414 -0.548234,1.208533 -0.746654,3.525555 -0.356029,4.157453 0.129369,0.209271 0.714329,0.270934 2.122153,0.223721 l 1.943554,-0.06516 0.06385,-1.879398 c 0.06031,-1.775205 0.03154,-1.914008 -0.518813,-2.503545 -1.057598,-1.132889 -0.697193,-1.322026 2.519117,-1.322026 1.929513,0 2.840828,0.07934 2.840828,0.247367 0,0.136046 -0.24525,0.546473 -0.544998,0.912054 -0.544888,0.66457 -0.544998,0.665689 -0.544998,5.54598 v 4.88128 l 0.541231,0.526859 c 1.001884,0.975291 0.779713,1.08617 -2.176223,1.08617 -2.452534,0 -2.724294,-0.03915 -2.718054,-0.391516 0.0037,-0.215333 0.150964,-0.586936 0.326999,-0.825784 0.228401,-0.309901 0.320066,-1.033051 0.320066,-2.525005 v -2.090712 l -2.12549,0.06399 -2.125491,0.06399 -0.06367,1.733883 c -0.05586,1.521192 0.0043,1.852879 0.490133,2.703712 0.304592,0.533402 0.488569,1.036759 0.408836,1.118581 -0.232334,0.238432 -5.481955,0.17301 -5.62839,-0.07023 z m 18.483746,-0.149118 c -2.19011,-0.796168 -3.494836,-3.156266 -3.269536,-5.914214 0.186527,-2.283335 1.081081,-3.762361 2.876817,-4.756459 1.217827,-0.674168 4.174407,-0.664401 5.449977,0.01795 2.00744,1.073931 2.94298,2.728203 2.94298,5.203914 0,3.646344 -2.09601,5.832093 -5.55897,5.796976 -0.8393,-0.0091 -1.937867,-0.165206 -2.441268,-0.348205 z m 3.606928,-1.752548 c 0.78086,-0.912704 1.02568,-1.901313 0.98401,-3.973634 -0.0751,-3.734631 -2.49998,-5.450943 -3.875211,-2.742861 -0.623878,1.228537 -0.652039,4.753727 -0.04735,5.928691 0.879774,1.709496 1.913031,1.986505 2.938561,0.787804 z m 9.18548,1.789655 c -2.18446,-0.717402 -3.04281,-2.526462 -3.05774,-6.44452 -0.006,-1.597994 -0.12364,-2.834023 -0.32372,-3.403972 -0.17278,-0.492198 -0.31562,-0.9704 -0.31743,-1.06268 -0.005,-0.2707 4.74723,-0.200557 4.91167,0.07244 0.0796,0.132157 -0.0618,0.465847 -0.31414,0.741529 -0.4263,0.46569 -0.45884,0.75075 -0.45884,4.020639 0,3.438347 0.0123,3.532045 0.5351,4.068542 0.66817,0.685731 2.00967,0.749345 2.75422,0.130609 0.40668,-0.337956 0.5356,-0.736326 0.66973,-2.069433 0.23534,-2.338976 0.009,-5.066919 -0.49443,-5.970402 -0.22695,-0.406942 -0.41263,-0.834823 -0.41263,-0.950826 0,-0.272742 3.64051,-0.276944 3.80464,-0.0039 0.0684,0.113545 -0.0728,0.549542 -0.31382,0.968775 -0.35495,0.61737 -0.47497,1.400324 -0.63157,4.119955 -0.17378,3.017749 -0.24919,3.448492 -0.74482,4.254233 -0.31606,0.513814 -0.90834,1.072357 -1.38745,1.308395 -1.0799,0.532062 -2.97019,0.631105 -4.21877,0.221068 z m 9.92277,-0.07036 -1.09,-0.381722 v -1.566063 c 0,-1.888607 0.32204,-2.04783 1.25583,-0.620947 1.06445,1.626555 3.44415,1.913604 3.6104,0.435503 0.093,-0.826876 -0.10194,-1.032285 -2.12384,-2.237943 -2.02785,-1.209197 -2.63339,-1.965669 -2.63339,-3.289711 0,-1.27692 0.66269,-2.308932 1.86678,-2.907131 0.82383,-0.409269 1.27315,-0.473611 2.84504,-0.407357 1.67746,0.07062 1.91116,0.135018 2.30527,0.634499 0.50138,0.635436 0.44262,2.063828 -0.10821,2.629082 -0.2793,0.286633 -0.4011,0.203588 -0.99014,-0.67504 -0.36941,-0.551038 -0.83025,-1.064319 -1.02408,-1.140653 -0.63526,-0.25019 -1.58696,-0.145593 -1.93615,0.212783 -0.89884,0.922446 -0.0153,2.02741 2.47738,3.098115 1.98894,0.854332 2.52741,1.512282 2.50499,3.060774 -0.0205,1.416062 -0.52665,2.142152 -2.05069,2.941883 -1.39983,0.734558 -3.19876,0.81296 -4.90924,0.213928 z m 8.61788,-0.102099 c 0.004,-0.153826 0.15097,-0.475082 0.32701,-0.71393 0.46839,-0.63554 0.46055,-7.848421 -0.01,-9.00368 -0.18143,-0.445609 -0.27143,-0.870239 -0.2,-0.943634 0.0714,-0.07335 1.76692,-0.168301 3.76776,-0.210923 4.20838,-0.08961 4.54273,0.02796 4.75771,1.672754 0.15441,1.181519 -0.18229,1.399401 -1.03054,0.666899 -0.75164,-0.64908 -1.83398,-0.919065 -2.80606,-0.699948 l -0.67105,0.151251 v 1.660163 1.660151 h 0.73361 c 0.40349,0 0.98301,-0.201337 1.28788,-0.447443 0.30485,-0.246105 0.61237,-0.447455 0.68339,-0.447455 0.071,0 0.12912,0.654399 0.12912,1.454209 0,1.491472 -0.273,1.859316 -0.85019,1.145582 -0.34856,-0.431016 -1.5465,-0.642173 -1.90601,-0.335966 -0.18729,0.159509 -0.29579,0.731384 -0.29579,1.559014 0,1.469518 0.27028,1.774151 1.56616,1.765346 0.83462,-0.0065 2.32961,-0.648911 2.76602,-1.190103 0.54561,-0.676653 0.74488,-0.424539 0.59302,0.750295 -0.24875,1.924439 0.10651,1.787066 -4.62152,1.787066 -3.2405,0 -4.22604,-0.06529 -4.22074,-0.279648 z m 20.59398,-1.362671 c -1.6317,-0.435568 -2.44366,-0.953753 -3.10743,-1.983098 -0.52044,-0.80708 -0.59855,-1.149393 -0.59855,-2.622513 0,-2.138913 0.32721,-2.837911 2.29065,-4.893259 2.96049,-3.099077 5.52184,-4.558996 11.44328,-6.522402 1.91839,-0.6361 3.80361,-1.298212 4.18938,-1.471365 0.7328,-0.328942 1.5537,-1.472196 1.98712,-2.767442 0.47127,-1.408401 0.26059,-1.410326 -1.21702,-0.01171 -1.80456,1.708743 -4.07775,2.887842 -5.89315,3.056781 -1.20438,0.112114 -1.32552,0.07713 -2.07489,-0.598082 -0.87936,-0.79237 -1.23934,-1.784491 -1.2412,-3.420906 -6.5e-4,-0.584477 -0.0874,-1.062693 -0.19275,-1.062693 -0.10531,0 -0.63736,0.535587 -1.18229,1.190181 -1.26757,1.522662 -3.12642,2.564883 -4.91724,2.756973 -2.32582,0.249474 -3.14146,-0.46002 -3.19957,-2.783219 -0.0176,-0.701691 -0.0476,-1.36141 -0.0666,-1.466032 -0.0192,-0.104571 -0.57682,0.318225 -1.23939,0.939666 -1.43587,1.34679 -3.44466,2.405608 -5.18221,2.731559 -1.08648,0.203809 -1.37637,0.180254 -2.06492,-0.167743 -1.17658,-0.594648 -1.65994,-1.606343 -1.62549,-3.402163 0.029,-1.511099 0.73805,-4.398421 1.56679,-6.380036 0.25293,-0.604754 0.38285,-1.167719 0.28871,-1.251024 -0.0941,-0.08324 -0.64143,-0.0091 -1.21619,0.164517 -0.96271,0.291081 -1.08658,0.412352 -1.57218,1.539205 -0.77793,1.805236 -2.71617,4.725581 -4.06822,6.129586 -0.6525,0.677576 -1.81865,1.578484 -2.59144,2.002035 -1.2125,0.664544 -1.65975,0.782745 -3.26323,0.862448 -1.58743,0.07895 -2.00922,0.01938 -2.89488,-0.407761 -1.22993,-0.593309 -2.24884,-1.77912 -2.59284,-3.017502 -0.13673,-0.492185 -0.32341,-0.983615 -0.41486,-1.092048 -0.0915,-0.108473 -0.70475,0.399748 -1.36291,1.129311 -1.60314,1.777052 -3.05853,2.57374 -4.91558,2.690836 -0.9291,0.05866 -1.62943,-0.0134 -1.97716,-0.203328 -0.86301,-0.471283 -1.53253,-1.680714 -1.53253,-2.768379 0,-0.528264 -0.0895,-1.017236 -0.19888,-1.086612 -0.10938,-0.06932 -0.79892,0.515154 -1.5323,1.298953 -2.22725,2.380362 -5.07612,3.469575 -7.73559,2.957556 -0.981487,-0.188969 -2.221731,-1.281498 -2.650627,-2.334957 -0.697742,-1.713776 -0.645143,-3.039444 0.283384,-7.142296 0.108372,-0.47884 0.06332,-0.50259 -0.728708,-0.384063 -1.764536,0.264054 -2.798535,-1.060157 -2.620711,-3.356278 0.05719,-0.73829 0.2985,-1.946406 0.536271,-2.684683 0.566788,-1.75991 0.275992,-2.111535 -0.740061,-0.894899 -2.432335,2.912515 -5.420385,8.745245 -7.172106,14.000066 -0.550574,1.651618 -1.188588,3.196429 -1.417805,3.432897 -0.323885,0.334145 -0.868576,0.464091 -2.444245,0.583164 -1.115119,0.08428 -2.150113,0.106522 -2.299988,0.04942 -0.388818,-0.148012 -0.338182,-0.909115 0.173628,-2.609663 0.245368,-0.815275 0.380613,-1.591101 0.300545,-1.724064 -0.08729,-0.144943 -0.680546,0.289832 -1.48162,1.085831 -1.880701,1.868772 -3.030001,2.727253 -4.458132,3.33007 -3.047768,1.286466 -5.003687,0.08259 -5.040565,-3.102382 -0.0067,-0.584477 -0.05179,-1.06268 -0.100034,-1.06268 -0.04825,0 -1.053772,0.988714 -2.234489,2.19713 -2.363042,2.418496 -3.896558,3.371832 -5.542131,3.445331 -3.490573,0.155907 -4.13026,-3.242654 -1.845275,-9.803659 0.402599,-1.156001 0.644852,-2.157109 0.538341,-2.224664 -0.224096,-0.142133 -0.815297,0.15363 -2.087337,1.044224 -0.794047,0.555942 -0.960711,0.830128 -1.373831,2.260054 -1.367261,4.732566 -4.086919,8.624235 -7.092193,10.148535 -1.532925,0.777504 -1.673161,0.80643 -3.541635,0.730538 -1.693766,-0.0688 -2.064774,-0.160056 -2.867201,-0.705345 -1.93298,-1.313546 -2.957999,-3.890798 -2.954144,-7.427732 0.003,-2.70552 0.405251,-4.400359 1.699366,-7.159166 2.201433,-4.693052 5.630172,-7.65265 9.92041,-8.563079 4.294802,-0.91139 6.086158,0.965316 5.880383,6.16058 -0.09815,2.478105 0.14228,2.696351 1.78134,1.616944 1.633329,-1.075621 1.95636,-1.727562 1.95735,-3.950275 4.36e-4,-1.005088 0.06221,-1.991629 0.137248,-2.192304 0.301431,-0.806144 4.294474,-2.432231 5.68391,-2.314667 0.708347,0.05996 0.838163,0.154372 0.894335,0.650575 0.03614,0.319253 -0.244625,1.376354 -0.623922,2.349108 -1.592319,4.083694 -3.435775,11.023807 -3.531968,13.296906 -0.04829,1.141057 -0.01617,1.229161 0.473831,1.300215 0.417531,0.06048 0.888286,-0.308172 2.288989,-1.792802 2.028845,-2.150398 2.698993,-3.414559 5.01994,-9.469606 2.005756,-5.232775 1.993358,-5.207283 2.768556,-5.691091 1.200955,-0.749528 4.325312,-1.692381 4.733649,-1.428496 0.620331,0.400868 0.532137,0.888825 -0.690267,3.819094 -2.736761,6.560381 -4.585826,12.869831 -4.13076,14.095168 0.447444,1.2048 3.779857,-1.559157 5.929375,-4.917944 0.919593,-1.436924 1.853587,-4.108992 2.535078,-7.252603 l 0.373702,-1.723843 -0.52099,-0.407656 c -1.137115,-0.889736 -1.117381,-0.84117 -0.650416,-1.600791 0.738464,-1.201301 4.582578,-3.057769 6.331572,-3.057769 1.671546,0 1.818469,1.829051 0.512034,6.374378 -0.115577,0.402103 -0.0908,0.413925 0.253264,0.120828 0.209752,-0.178654 0.751168,-0.883687 1.203146,-1.566727 1.016329,-1.535914 3.559829,-4.026908 4.657726,-4.561571 1.418567,-0.690843 2.163415,-0.709793 2.883984,-0.07336 0.556937,0.491899 0.635569,0.708896 0.621409,1.714869 -0.01296,0.921184 -0.240242,1.607943 -1.135392,3.430881 -1.321097,2.690355 -1.479129,3.198914 -1.128702,3.632232 0.545008,0.673948 1.013224,0.340115 2.133091,-1.520866 2.310008,-3.838746 4.084008,-5.640978 6.920598,-7.03078 2.64819,-1.297483 4.95296,-1.279925 6.83985,0.05215 0.60015,0.423681 1.17538,0.770325 1.27829,0.770325 0.1917,0 1.15708,-2.027397 3.03613,-6.376134 2.74015,-6.341641 9.12313,-14.353256 13.44041,-16.8697839 2.69396,-1.5703008 5.79865,-2.2236258 7.47605,-1.5732116 0.91498,0.3547821 1.79027,1.313568 1.93826,2.1231546 0.13228,0.7236228 -0.37116,2.1133669 -0.76559,2.1133669 -0.10603,0 -0.81475,-0.3019461 -1.57489,-0.6709948 -2.55675,-1.241305 -3.95889,-0.8032565 -6.65356,2.0786718 -3.10645,3.322334 -5.47403,7.448986 -9.71757,16.93769 -5.20934,11.648227 -6.91983,16.219462 -6.91983,18.493016 0,0.935882 0.31092,0.953649 1.47997,0.08454 1.57099,-1.167901 2.58143,-2.799347 3.19787,-5.16323 1.37619,-5.277452 4.56882,-9.756381 8.31093,-11.65936 1.48157,-0.753416 2.04871,-0.917426 3.53397,-1.021893 1.61123,-0.113284 1.87579,-0.07088 2.96296,0.474939 0.99979,0.501991 1.28478,0.786855 1.75397,1.75312 0.46731,0.962414 0.56022,1.463938 0.56022,3.024252 0,1.028786 -0.11157,2.325489 -0.24807,2.881573 -0.20904,0.851965 -0.19446,1.066049 0.0927,1.360668 0.3089,0.317016 0.43237,0.294476 1.32381,-0.24167 1.33863,-0.805091 1.83972,-1.610441 2.54879,-4.096388 0.35107,-1.230839 0.77275,-2.246801 1.00529,-2.421996 0.44305,-0.333807 3.05872,-1.174742 4.29359,-1.380398 0.47539,-0.07921 0.91477,-0.02549 1.1028,0.134615 0.36583,0.311579 0.3399,0.397876 -1.95385,6.503426 -0.80897,2.153351 -1.80951,4.821256 -2.22342,5.928691 -0.8903,2.382027 -1.47435,5.009587 -1.18056,5.311099 0.12518,0.128502 0.47253,0.06516 0.90686,-0.165388 2.5876,-1.373232 6.02274,-6.760015 8.31455,-13.038354 0.48159,-1.319268 1.06765,-2.610326 1.30236,-2.869035 0.41211,-0.454258 1.873,-0.98779 3.88524,-1.418936 1.12882,-0.241878 1.75789,0.0052 1.75789,0.689139 0,0.254092 -0.72608,2.138237 -1.61351,4.186951 -3.90756,9.020953 -5.1326,13.00948 -3.99572,13.00948 0.12656,0 0.69587,-0.306728 1.26515,-0.681634 1.30524,-0.859561 2.3997,-2.496613 3.2323,-4.834665 1.39355,-3.913338 3.15286,-6.750586 5.42376,-8.74691 2.93438,-2.57958 4.52505,-3.286577 7.09479,-3.153418 1.59997,0.08298 1.89411,0.210572 3.75641,1.630145 0.18613,0.141886 0.69794,-0.02146 1.58122,-0.504606 1.63982,-0.896954 3.08055,-1.140731 3.59875,-0.608903 0.20172,0.207008 0.36676,0.508221 0.36676,0.669344 0,0.506647 -1.0023,3.03415 -2.39965,6.05121 -2.28085,4.924629 -4.48004,11.317788 -4.12646,11.995794 0.313,0.600228 0.80997,0.524167 2.00113,-0.306221 0.80333,-0.560012 1.13894,-0.984148 1.46049,-1.845725 7.53707,-20.195073 11.17754,-27.774401 16.89485,-35.17453 3.18998,-4.1289001 7.83673,-6.7596154 11.95885,-6.7703989 1.94449,-0.00507 3.11157,0.8007775 3.35081,2.3137152 0.14161,0.8956299 -0.35304,1.9337337 -0.92143,1.9337337 -0.18107,0 -0.84099,-0.270106 -1.46646,-0.600236 -2.2475,-1.1862221 -4.22625,-0.6653845 -6.4777,1.705033 -2.19888,2.315101 -4.4903,6.349029 -7.95054,13.996568 -1.05782,2.337922 -2.48363,5.408529 -3.16845,6.823589 -1.71339,3.540369 -3.13342,6.92591 -2.97374,7.089777 0.073,0.07505 0.86215,-0.608605 1.75348,-1.519124 2.63413,-2.690836 5.12979,-3.983532 7.71707,-3.99728 2.29066,-0.01171 3.23481,0.857441 3.17222,2.921815 -0.0487,1.605667 -0.57509,3.033213 -2.80986,7.620017 -2.1936,4.502289 -2.71667,5.959919 -2.71667,7.570347 0,1.547061 0.3577,1.905645 1.8903,1.894888 1.57365,-0.01041 3.20907,-0.856023 4.44445,-2.296328 1.37496,-1.603053 1.7312,-2.587774 1.7312,-4.785306 0,-2.327258 0.16312,-2.53303 1.99882,-2.521689 1.07356,0.0065 1.3655,0.09911 1.83519,0.581109 1.0969,1.125696 0.89729,3.047403 -0.61678,5.938029 -0.77226,1.474382 -2.73785,3.569763 -4.13415,4.407122 -0.51483,0.308744 -1.83343,0.869289 -2.93021,1.245666 -3.4143,1.171647 -6.69381,0.891699 -8.30279,-0.708753 -2.24844,-2.236499 -1.76213,-5.465185 2.02796,-13.464063 1.14666,-2.419966 2.05301,-4.572341 2.01413,-4.783056 -0.0463,-0.250475 -0.31966,-0.407722 -0.78985,-0.454167 -2.66943,-0.263768 -7.92173,6.751976 -10.60506,14.165662 -0.44537,1.230488 -1.06688,2.51646 -1.38115,2.857733 -1.00033,1.086299 -4.21881,1.713698 -4.84144,0.943776 -0.27339,-0.338073 -0.21137,-1.82325 0.10964,-2.626961 0.21557,-0.539619 -0.13444,-0.504008 -1.95661,0.199074 -1.48147,0.571614 -2.2936,1.082424 -2.2936,1.442595 0,0.409217 -3.1588,6.87114 -4.45063,9.104583 -2.08146,3.598663 -4.24302,5.453401 -7.91531,6.79175 -1.59831,0.5825 -5.73784,0.773433 -7.36297,0.339608 z m 4.75007,-2.941155 c 2.20296,-0.588861 4.04794,-2.202995 5.88778,-5.151096 0.918,-1.470987 2.76907,-5.562797 2.76907,-6.12108 0,-0.402155 -0.69154,-0.299808 -2.83815,0.420091 -4.21199,1.412563 -7.52825,3.812018 -8.6762,6.277585 -0.84564,1.816266 -0.55155,4.012185 0.61871,4.619866 0.68525,0.355813 0.7423,0.354656 2.23879,-0.04539 z M 50.793169,51.90814 c 1.360283,-1.129883 3.076972,-4.866478 3.431767,-7.469703 0.09031,-0.662633 0.01635,-1.52988 -0.206615,-2.423101 -0.190995,-0.765109 -0.347265,-1.689012 -0.347265,-2.053124 0,-0.818395 0.645033,-2.145364 1.38945,-2.858395 1.186573,-1.136544 1.19969,-2.761382 0.02474,-3.064026 -2.03208,-0.523413 -5.953037,4.87635 -7.325479,10.088289 -0.651613,2.474554 -0.718325,7.085992 -0.116204,8.032357 0.36697,0.576751 0.491721,0.623925 1.378778,0.521319 0.638351,-0.07388 1.250138,-0.341117 1.770827,-0.773616 z M 164.20256,48.812119 c 3.17281,-2.359253 6.96994,-9.38059 6.96994,-12.888235 0,-1.508549 -0.27737,-1.975241 -1.17396,-1.975241 -1.87335,0 -5.11616,3.791273 -7.34242,8.584253 -1.58261,3.407236 -1.97681,5.927793 -1.07225,6.856105 0.56138,0.576127 1.28138,0.417515 2.61869,-0.576882 z m -36.50314,-0.855125 c 1.75845,-0.840312 3.4055,-3.270254 4.11712,-6.074101 0.28233,-1.112417 0.27746,-1.435168 -0.0454,-3.011532 -0.33899,-1.654819 -0.33828,-1.841784 0.0109,-2.979732 0.2171,-0.706802 0.73635,-1.637845 1.24264,-2.228124 0.47835,-0.557697 0.86971,-1.238161 0.86971,-1.512152 0,-0.45894 -0.0781,-0.489102 -0.9931,-0.383257 -1.1644,0.134694 -2.45379,1.14263 -4.05441,3.169416 -1.35996,1.722035 -2.20251,3.398509 -3.11163,6.191405 -1.4258,4.380147 -1.21364,7.328182 0.52918,7.352803 0.17985,0.0026 0.82548,-0.233593 1.43472,-0.524726 z m -22.62607,-0.491691 c 2.27558,-1.163752 5.43837,-5.508652 6.50068,-8.930312 0.73769,-2.376096 0.91766,-4.700934 0.43766,-5.653555 -0.70897,-1.406996 -1.58777,-1.387968 -3.32385,0.07193 -2.05431,1.72755 -4.0545,5.233191 -5.52869,9.689841 -0.38111,1.152112 -0.74618,2.624309 -0.81127,3.271555 -0.10045,0.998819 -0.0482,1.248761 0.3453,1.652607 0.60147,0.617279 1.00751,0.599851 2.38017,-0.1021 z M 17.77569,68.085969 C 9.1017188,66.388256 3.8415012,59.827056 5.5999075,52.898779 c 0.6874738,-2.708707 2.7315873,-5.935311 4.8462305,-7.649711 1.304618,-1.057699 3.510302,-2.246488 5.402099,-2.911566 2.303432,-0.809786 6.90641,-0.625187 7.248879,0.290704 0.169323,0.452828 -0.422527,0.847868 -2.766904,1.846791 -1.026293,0.437298 -2.307435,1.082971 -2.846983,1.434817 -1.474862,0.961803 -3.298235,2.992205 -4.03298,4.490896 -0.63034,1.285738 -0.653997,1.443426 -0.653997,4.359349 0,2.966986 0.0138,3.054141 0.715162,4.515829 2.037856,4.247092 8.436902,6.869306 12.95307,5.307977 1.669016,-0.577024 2.874812,-1.4193 4.204229,-2.936759 3.53252,-4.032202 4.15321,-8.90344 1.937642,-15.206817 -1.187931,-3.379701 -3.727273,-6.751846 -8.550591,-11.354817 -2.659179,-2.5377 -3.695036,-3.864876 -4.635669,-5.939369 -3.150567,-6.948346 -0.362498,-14.217682 7.219089,-18.822331 6.726771,-4.0854785 14.747663,-4.2737266 18.049933,-0.4236297 1.593935,1.8583607 1.994615,4.4688027 1.127927,7.3485037 -0.93706,3.113518 -4.328677,6.361674 -7.552269,7.23281 -2.926409,0.790823 -6.175616,-0.307937 -6.175616,-2.088396 0,-0.92023 0.484507,-1.156821 1.892422,-0.924103 2.67737,0.442557 4.953026,-0.721644 6.101244,-3.121356 1.283517,-2.682486 0.566538,-6.237943 -1.503222,-7.454386 -0.790597,-0.46465 -1.211713,-0.546607 -2.784463,-0.5419 -3.455806,0.01028 -6.100478,1.205075 -8.496846,3.838472 -1.943352,2.135571 -2.457797,3.421701 -2.489393,6.22356 -0.04633,4.108221 1.290239,6.641394 6.333185,12.003166 5.246671,5.578366 7.012235,8.145069 8.363843,12.159023 1.010889,3.00209 1.326787,7.469548 0.759333,10.738514 -1.285928,7.407911 -8.635689,12.7165 -17.986056,12.990972 -1.920978,0.05645 -3.48491,-0.01977 -4.503516,-0.219053 z M 52.324097,66.28855 c -3.071508,-0.550986 -5.638457,-1.595106 -8.054168,-3.276055 -1.258041,-0.875389 -1.574404,-1.307068 -1.366126,-1.864089 0.190877,-0.510472 0.544143,-0.542064 2.159414,-0.193053 2.625925,0.567361 6.104674,0.29112 10.133832,-0.804713 1.85844,-0.505451 4.671547,-1.268557 6.251346,-1.695801 3.511036,-0.949513 12.708486,-2.859164 17.292541,-3.590404 10.04831,-1.602884 13.89084,-1.893484 27.151644,-2.053423 13.28986,-0.160276 17.16631,0.08337 27.6734,1.739464 5.80553,0.915032 10.53147,2.111339 14.6724,3.714067 1.09259,0.422887 1.4774,0.977997 1.13422,1.636077 -0.31133,0.597002 -0.8189,0.569078 -3.7489,-0.206228 -3.24961,-0.859886 -12.18829,-2.572635 -15.76201,-3.020182 -10.12033,-1.267399 -22.83098,-1.780966 -30.737852,-1.241946 -5.56918,0.379654 -13.164336,1.115213 -16.150137,1.564074 -3.885949,0.584178 -9.773998,1.866183 -12.372393,2.693853 -2.564725,0.816926 -7.623692,3.03865 -11.760237,5.164674 -3.367759,1.730892 -4.038127,1.878358 -6.516974,1.433685 z M 175.75047,64.9309 c -1.37885,-0.699688 -3.01793,-1.469024 -3.64244,-1.709627 -1.46532,-0.564526 -2.33286,-1.575831 -2.15125,-2.50772 0.29185,-1.497598 1.51512,-2.157304 3.9882,-2.15084 2.22172,0.0065 4.1734,0.305414 7.32588,1.124603 2.44743,0.635996 4.53062,1.498392 4.83321,2.000851 0.28331,0.470425 -0.15531,1.090345 -1.41106,1.994348 -1.82039,1.310464 -3.92322,2.26843 -5.2779,2.404398 -1.07458,0.107822 -1.33754,0.02484 -3.66464,-1.156013 z"
       id="path3" />
  </g>
</svg>
